<svg version="1.1" viewBox="0.0 0.0 288.0 288.0" fill="none" stroke="none" stroke-linecap="square" stroke-miterlimit="10" xmlns:xlink="http://www.w3.org/1999/xlink" xmlns="http://www.w3.org/2000/svg"><clipPath id="p.0"><path d="m0 0l288.0 0l0 288.0l-288.0 0l0 -288.0z" clip-rule="nonzero"/></clipPath><g clip-path="url(#p.0)"><path fill="#000000" fill-opacity="0.0" d="m0 0l288.0 0l0 288.0l-288.0 0z" fill-rule="evenodd"/><path fill="#101417" d="m144.0 77.68767c57.296585 -150.98688 280.7533 0 0 194.12599c-280.7533 -194.12599 -57.296585 -345.11285 0 -194.12599z" fill-rule="evenodd"/><path fill="#ffffff" d="m39.380577 135.66405l38.643044 0l24.790031 -68.53806l13.853012 6.5616837l19.685036 110.09711l32.081375 -84.57742l13.123352 2.916008l16.771652 56.14173l20.414703 -22.601044l30.62204 0.7270355l-8.748032 15.312332l-13.125977 0l-29.162735 30.62204l-10.936996 -3.6456604l-13.123367 -44.475067l-34.997375 83.84776l-13.125984 -5.102356l-20.414696 -102.07612l-15.31234 40.09974l-44.475063 0z" fill-rule="evenodd"/></g></svg>