<svg version="1.1" viewBox="0.0 0.0 288.0 288.0" fill="none" stroke="none" stroke-linecap="square" stroke-miterlimit="10" xmlns:xlink="http://www.w3.org/1999/xlink" xmlns="http://www.w3.org/2000/svg"><clipPath id="p.0"><path d="m0 0l288.0 0l0 288.0l-288.0 0l0 -288.0z" clip-rule="nonzero"/></clipPath><g clip-path="url(#p.0)"><path fill="#000000" fill-opacity="0.0" d="m0 0l288.0 0l0 288.0l-288.0 0z" fill-rule="evenodd"/><path fill="#cc0000" d="m356.60367 111.81365l0 0c0 -23.326424 18.90982 -42.23622 42.236237 -42.23622l0 0c11.201721 0 21.944672 4.449875 29.865509 12.370697c7.9208374 7.92083 12.370697 18.66378 12.370697 29.865524l0 0c0 23.326424 -18.90979 42.236214 -42.236206 42.236214l0 0c-23.326416 0 -42.236237 -18.90979 -42.236237 -42.236214z" fill-rule="evenodd"/><path fill="#16b9c2" d="m156.71129 91.51706l99.1181 0l0 80.44095l-99.1181 0z" fill-rule="evenodd"/><path fill="#ffffff" d="m204.19603 118.98926l0 -12.649605l-6.3432007 -5.928459l-9.910202 5.5342026l-6.540909 2.7660599l-1.1903839 7.5117416l-5.945709 4.940727l0 9.883545l-4.957184 6.3247986l2.578476 9.487198l3.7647247 2.1725922l2.578476 8.105209l7.7292175 2.568924l6.1454926 6.1276703l9.514801 -1.7804108l2.7761993 -6.125595z" fill-rule="evenodd"/><path fill="#ffffff" d="m208.34367 118.98926l0 -12.649605l6.3432007 -5.928459l9.910202 5.5342026l6.540909 2.7660599l1.1903992 7.5117416l5.945709 4.940727l0 9.883545l4.957184 6.3247986l-2.5784912 9.487198l-3.7647095 2.1725922l-2.5784912 8.105209l-7.7292175 2.568924l-6.1454926 6.1276703l-9.514801 -1.7804108l-2.776184 -6.125595z" fill-rule="evenodd"/><path fill="#101417" d="m156.59842 171.95801l99.11812 0l0 83.2126l-99.11812 0z" fill-rule="evenodd"/><path fill="#ffffff" d="m206.15552 205.31445l-7.5013123 -17.0l-10.0 -2.0l-14.498688 7.5013123l-4.0 15.498688l6.0 12.501312l29.498688 19.0z" fill-rule="evenodd"/><path fill="#ffffff" d="m206.1557 205.31224l7.50206 -17.001709l10.000992 -2.0001984l14.500137 7.50206l4.000412 15.500244l-6.0006104 12.502563l-29.501633 19.001892z" fill-rule="evenodd"/><path fill="#ffffff" d="m203.95407 240.33727l2.2493591 -35.307083l2.3805542 35.307083z" fill-rule="evenodd"/><path fill="#16b9c2" d="m57.480316 171.9567l99.1181 0l0 83.2126l-99.1181 0z" fill-rule="evenodd"/><path fill="#ffffff" d="m103.36752 192.37163l-2.5562057 -6.367691l-14.246483 -1.6771698l-9.865265 10.054703l-4.746811 49.605362l14.977684 -8.38031l16.07148 -1.6743927z" fill-rule="evenodd"/><path fill="#ffffff" d="m85.944885 184.32677l14.595795 -1.5852966l0.3175888 3.4881897z" fill-rule="evenodd"/><path fill="#ffffff" d="m109.385826 192.5711l2.5562057 -6.367691l14.246483 -1.6771698l9.8652725 10.0546875l4.746811 49.605362l-14.977692 -8.380295l-16.071472 -1.6743927z" fill-rule="evenodd"/><path fill="#ffffff" d="m126.80847 184.52625l-14.595802 -1.5852966l-0.3175888 3.4881897z" fill-rule="evenodd"/><path fill="#16b9c2" d="m22.93552 142.40187l163.72884 -128.59874l16.897964 21.509077l-163.72882 128.59875z" fill-rule="evenodd"/><path fill="#101417" d="m22.688667 142.09938l163.8042 -128.50282l29.514923 37.56893l-163.8042 128.5028zm6.364189 0.7663269l23.91653 30.442856l156.67421 -122.90941l-23.916534 -30.442856z" fill-rule="evenodd"/><path fill="#101417" d="m111.77239 85.20756l0 0c1.0429764 -0.819191 2.555275 -0.63990784 3.3778 0.40044403l20.266068 25.63292c0.394989 0.49959564 0.5748291 1.1350021 0.49998474 1.7664337c-0.07485962 0.6314392 -0.39830017 1.2071762 -0.89915466 1.6005707l0 0l0 0c-1.0429688 0.819191 -2.5552673 0.63990784 -3.3777924 -0.4004364l-20.26606 -25.632927l0 0c-0.82253265 -1.0403519 -0.6438217 -2.5478058 0.39915466 -3.3670044z" fill-rule="evenodd"/><path fill="#101417" d="m54.15476 130.17302l0 0c1.0429764 -0.8191986 2.5533104 -0.6383667 3.3734207 0.40390015l20.357296 25.871506c0.39382935 0.50050354 0.5725708 1.1367798 0.4968872 1.7688751c-0.075675964 0.6320801 -0.39956665 1.2081757 -0.90042114 1.6015778l0 0l0 0c-1.0429764 0.81918335 -2.5533142 0.6383667 -3.3734207 -0.40390015l-20.357296 -25.871506l0 0c-0.82011414 -1.0422516 -0.63944244 -2.5512543 0.40353394 -3.370453z" fill-rule="evenodd"/><path fill="#101417" d="m169.55493 40.309082l0 0c1.042984 -0.8191948 2.552658 -0.6378555 3.3719788 0.4050293l19.58374 24.927734c0.39344788 0.5008087 0.57180786 1.1373825 0.49586487 1.7696762c-0.07595825 0.6322937 -0.3999939 1.208519 -0.9008484 1.6019135l0 0l0 0c-1.042984 0.819191 -2.5526733 0.6378555 -3.3719788 -0.4050293l-19.58374 -24.92773l0 0c-0.8193054 -1.0428848 -0.6380005 -2.5523987 0.40498352 -3.3715935z" fill-rule="evenodd"/><path fill="#101417" d="m89.21449 115.67764l0 0c1.042984 -0.819191 2.5553207 -0.6399536 3.3779144 0.40035248l14.123032 17.860893c0.39501953 0.4995575 0.57489777 1.1349487 0.50006104 1.7663574c-0.0748291 0.63142395 -0.3982544 1.2071533 -0.8991089 1.6005554l0 0l0 0c-1.0429764 0.81918335 -2.5553207 0.63993835 -3.3779144 -0.4003601l-14.123024 -17.860886c-0.8225937 -1.0402985 -0.64393616 -2.5477219 0.39904022 -3.3669128z" fill-rule="evenodd"/><path fill="#101417" d="m146.55049 70.23661l0 0c1.0429688 -0.819191 2.5552979 -0.6399307 3.3778687 0.400383l14.243698 18.01432c0.39501953 0.49958038 0.57489014 1.1349716 0.5000458 1.7663956c-0.07484436 0.6314316 -0.39826965 1.207161 -0.89912415 1.6005554l0 0l0 0c-1.042984 0.819191 -2.5552979 0.63993835 -3.3778687 -0.400383l-14.243713 -18.01432c-0.8225708 -1.0403214 -0.6438904 -2.5477524 0.39909363 -3.366951z" fill-rule="evenodd"/><path fill="#101417" d="m67.15852 33.262516l0 0c1.3220062 0 2.3977203 1.0716896 2.402687 2.3936844l0.23400116 62.36224c0.002380371 0.6348419 -0.24752808 1.2436829 -0.6947479 1.6925888c-0.44721985 0.44890594 -1.0551224 0.7010956 -1.6899719 0.7010956l0 0l0 0c-1.3220062 0 -2.3977203 -1.0716934 -2.4026794 -2.3936844l-0.23400879 -62.36224c-0.0049591064 -1.3219948 1.0627136 -2.3936844 2.3847198 -2.3936844z" fill-rule="evenodd"/><path fill="#101417" d="m33.709705 66.9633l0 0c0 -1.3220062 1.0716896 -2.3977203 2.3936844 -2.4026794l62.36224 -0.23400879c0.6348419 -0.002380371 1.2436829 0.24752808 1.6925888 0.6947479c0.44890594 0.44722748 0.7010956 1.0551224 0.7010956 1.6899719l0 0l0 0c0 1.3220062 -1.0716934 2.3977203 -2.3936844 2.402687l-62.36224 0.23400116c-1.3219948 0.0049591064 -2.3936844 -1.0627136 -2.3936844 -2.3847198z" fill-rule="evenodd"/></g></svg>