<svg version="1.1" viewBox="0.0 0.0 288.0 288.0" fill="none" stroke="none" stroke-linecap="square" stroke-miterlimit="10" xmlns:xlink="http://www.w3.org/1999/xlink" xmlns="http://www.w3.org/2000/svg"><clipPath id="p.0"><path d="m0 0l288.0 0l0 288.0l-288.0 0l0 -288.0z" clip-rule="nonzero"/></clipPath><g clip-path="url(#p.0)"><path fill="#000000" fill-opacity="0.0" d="m0 0l288.0 0l0 288.0l-288.0 0z" fill-rule="evenodd"/><path fill="#101417" d="m31.934383 62.834644l0 0c0 -1.3220024 1.0716972 -2.3936996 2.3936996 -2.3936996l58.582676 0c0.63484955 0 1.2436981 0.25219345 1.6926041 0.7010994c0.44890594 0.44890594 0.7010956 1.0577545 0.7010956 1.6926003l0 0l0 0c0 1.3220024 -1.0716934 2.3937035 -2.3936996 2.3937035l-58.582676 0c-1.3220024 0 -2.3936996 -1.071701 -2.3936996 -2.3937035z" fill-rule="evenodd"/><path fill="#101417" d="m63.62063 31.15041l0 0c1.3220062 0 2.3936996 1.0716972 2.3936996 2.3936996l0 58.582676c0 0.63484955 -0.25218964 1.2436981 -0.7010956 1.6926041c-0.44890594 0.44890594 -1.0577545 0.7010956 -1.6926041 0.7010956l0 0l0 0c-1.3220024 0 -2.3936996 -1.0716934 -2.3936996 -2.3936996l0 -58.582676c0 -1.3220024 1.0716972 -2.3936996 2.3936996 -2.3936996z" fill-rule="evenodd"/><path fill="#16b9c2" d="m117.2336 35.937008l0 0c0 -6.1035156E-4 4.9591064E-4 -0.0011062622 0.0011062622 -0.0011062622l132.75479 0.0011062622c2.89917E-4 0 5.79834E-4 1.18255615E-4 7.7819824E-4 3.2424927E-4c2.1362305E-4 2.0599365E-4 3.2043457E-4 4.8828125E-4 3.2043457E-4 7.8201294E-4l-0.0010986328 176.06189c0 6.1035156E-4 -5.0354004E-4 0.0011138916 -0.0011138916 0.0011138916l-132.75479 -0.0011138916l0 0c-6.1035156E-4 0 -0.0011062622 -4.8828125E-4 -0.0011062622 -0.0011138916z" fill-rule="evenodd"/><path fill="#101417" d="m117.2336 33.54331l0 0c0 -1.3220062 1.0716934 -2.3937016 2.3936996 -2.3937016l130.99213 0c0.6348572 0 1.2436981 0.25219154 1.6926117 0.7010975c0.44889832 0.44890594 0.7010956 1.0577545 0.7010956 1.6926041l0 0l0 0c0 1.3220024 -1.071701 2.3936996 -2.3937073 2.3936996l-130.99213 0c-1.3220062 0 -2.3936996 -1.0716972 -2.3936996 -2.3936996z" fill-rule="evenodd"/><path fill="#101417" d="m250.62466 31.149607l0 0c1.3220062 0 2.3937073 1.0716953 2.3937073 2.3937016l0 175.05511c0 0.6348572 -0.25219727 1.2436981 -0.7010956 1.6926117c-0.44891357 0.44889832 -1.0577545 0.7010956 -1.6926117 0.7010956l0 0l0 0c-1.321991 0 -2.393692 -1.071701 -2.393692 -2.3937073l0 -175.05511c0 -1.3220062 1.071701 -2.3937016 2.393692 -2.3937016z" fill-rule="evenodd"/><path fill="#ffffff" d="m131.90945 53.98163l103.401566 0l0 8.22047l-103.401566 0z" fill-rule="evenodd"/><path fill="#101417" d="m79.91863 100.89239l0 0c0 -11.40229 9.243385 -20.645668 20.645676 -20.645668l0 0c5.4755707 0 10.726875 2.1751633 14.598686 6.046974c3.8718185 3.8718185 6.046982 9.123123 6.046982 14.598694l0 0c0 11.40229 -9.243385 20.645668 -20.645668 20.645668l0 0c-11.40229 0 -20.645676 -9.243378 -20.645676 -20.645668zm4.4115677 0l0 0c0 8.965851 7.268257 16.2341 16.234108 16.2341c8.965843 0 16.2341 -7.2682495 16.2341 -16.2341l0 0c0 -8.965843 -7.268257 -16.2341 -16.2341 -16.2341l0 0c-8.965851 0 -16.234108 7.268257 -16.234108 16.2341z" fill-rule="evenodd"/><path fill="#101417" d="m100.56431 196.72188l0 0c1.3219986 0 2.3936996 1.071701 2.3936996 2.3937073l0 51.149597c0 0.6348572 -0.25219727 1.2436981 -0.7011032 1.6926117c-0.44890594 0.44889832 -1.0577545 0.7010956 -1.6925964 0.7010956l0 0l0 0c-1.3220062 0 -2.3937073 -1.071701 -2.3937073 -2.3937073l0 -51.149597c0 -1.3220062 1.071701 -2.3937073 2.3937073 -2.3937073z" fill-rule="evenodd"/><path fill="#101417" d="m118.81627 153.90814l0 0c1.3220062 0 2.393364 1.0716858 2.3929367 2.393692l-0.029960632 93.732285c-2.0599365E-4 0.6348572 -0.252594 1.2436981 -0.7016449 1.6926117c-0.44904327 0.44889832 -1.0579758 0.7010956 -1.6928253 0.7010956l0 0l0 0c-1.3220062 0 -2.3933563 -1.071701 -2.3929367 -2.3937073l0.029968262 -93.732285c4.196167E-4 -1.3220062 1.072464 -2.393692 2.3944626 -2.393692z" fill-rule="evenodd"/><path fill="#101417" d="m137.36919 127.7866l0 0c1.3220062 0.06958008 2.3404083 1.1978378 2.2746582 2.5200424l-2.9115143 58.55046c-0.031570435 0.63494873 -0.31404114 1.2306213 -0.7852783 1.6559601c-0.47123718 0.42533875 -1.0926208 0.64553833 -1.727478 0.6121216l0 0l0 0c-1.321991 -0.06958008 -2.340393 -1.1978455 -2.274643 -2.52005l2.9115143 -58.55046c0.06573486 -1.3222046 1.1907349 -2.337654 2.512741 -2.268074z" fill-rule="evenodd"/><path fill="#101417" d="m98.443275 123.40404l0 0c0.22612762 -1.3046112 1.4665146 -2.17585 2.7704697 -1.9459839l36.191345 6.3801575c0.6261749 0.11038971 1.1835785 0.46513367 1.5495605 0.9861908c0.3659973 0.5210571 0.51060486 1.165741 0.40200806 1.7922363l0 0l0 0c-0.22613525 1.3046112 -1.466507 2.1758575 -2.770462 1.9459839l-36.191353 -6.3801575c-1.3039551 -0.22987366 -2.1777039 -1.4738159 -1.9515686 -2.7784271z" fill-rule="evenodd"/><path fill="#101417" d="m98.1706 250.03412l0 0c0 -1.3220062 1.071701 -2.393692 2.3937073 -2.393692l18.236214 0c0.63484955 0 1.2436981 0.252182 1.6926041 0.7010956c0.44890594 0.44889832 0.7011032 1.0577545 0.7011032 1.6925964l0 0l0 0c0 1.3220062 -1.071701 2.3937073 -2.3937073 2.3937073l-18.236214 0c-1.3220062 0 -2.3937073 -1.071701 -2.3937073 -2.3937073z" fill-rule="evenodd"/><path fill="#101417" d="m116.391075 188.85826l0 0c0 -1.321991 1.071701 -2.393692 2.3936996 -2.393692l13.1653595 0c0.6348419 0 1.2436981 0.25219727 1.6925964 0.7010956c0.44891357 0.44891357 0.7010956 1.0577545 0.7010956 1.6925964l0 0l0 0c0 1.3220062 -1.0716858 2.3937073 -2.393692 2.3937073l-13.1653595 0l0 0c-1.3219986 0 -2.3936996 -1.071701 -2.3936996 -2.3937073z" fill-rule="evenodd"/><path fill="#101417" d="m82.17526 153.90814l0 0c-1.3220062 0 -2.3933563 1.0716858 -2.3929367 2.393692l0.029968262 93.732285c1.9836426E-4 0.6348572 0.25258636 1.2436981 0.70163727 1.6926117c0.4490509 0.44889832 1.0579758 0.7010956 1.6928253 0.7010956l0 0l0 0c1.3220062 0 2.3933563 -1.071701 2.3929367 -2.3937073l-0.029968262 -93.732285c-4.196167E-4 -1.3220062 -1.0724564 -2.393692 -2.3944626 -2.393692z" fill-rule="evenodd"/><path fill="#101417" d="m63.62235 127.7866l0 0c-1.3220062 0.06958008 -2.3404007 1.1978378 -2.2746544 2.5200424l2.9115143 58.55046c0.031570435 0.63494873 0.31404114 1.2306213 0.7852783 1.6559601c0.47122955 0.42533875 1.0926208 0.64553833 1.7274704 0.6121216l0 0l0 0c1.3219986 -0.06958008 2.3404007 -1.1978455 2.2746506 -2.52005l-2.9115143 -58.55046c-0.06574249 -1.3222046 -1.1907425 -2.337654 -2.512745 -2.268074z" fill-rule="evenodd"/><path fill="#101417" d="m102.54826 123.40404l0 0c-0.22613525 -1.3046112 -1.4665146 -2.17585 -2.7704697 -1.9459839l-36.191345 6.3801575c-0.62618256 0.11038971 -1.1835785 0.46513367 -1.549572 0.9861908c-0.36598969 0.5210571 -0.5105934 1.165741 -0.40200043 1.7922363l0 0l0 0c0.22613144 1.3046112 1.4665108 2.1758575 2.7704659 1.9459839l36.191345 -6.3801575c1.3039551 -0.22987366 2.1777039 -1.4738159 1.9515762 -2.7784271z" fill-rule="evenodd"/><path fill="#101417" d="m102.82093 250.03412l0 0c0 -1.3220062 -1.0716934 -2.393692 -2.3936996 -2.393692l-18.236221 0c-0.63484955 0 -1.2436981 0.252182 -1.6926041 0.7010956c-0.44890594 0.44889832 -0.7010956 1.0577545 -0.7010956 1.6925964l0 0l0 0c0 1.3220062 1.0716934 2.3937073 2.3936996 2.3937073l18.236221 0c1.3220062 0 2.3936996 -1.071701 2.3936996 -2.3937073z" fill-rule="evenodd"/><path fill="#101417" d="m84.60046 188.85826l0 0c0 -1.321991 -1.0716934 -2.393692 -2.3936996 -2.393692l-13.165352 0c-0.63484955 0 -1.2436981 0.25219727 -1.6926041 0.7010956c-0.44890594 0.44891357 -0.7010956 1.0577545 -0.7010956 1.6925964l0 0l0 0c0 1.3220062 1.0716934 2.3937073 2.3936996 2.3937073l13.165352 0l0 0c1.3220062 0 2.3936996 -1.071701 2.3936996 -2.3937073z" fill-rule="evenodd"/><path fill="#ffffff" d="m190.30598 106.72178l3.1181183 74.015755l-4.7873993 0.18896484l-3.1181183 -74.01574z" fill-rule="evenodd"/><path fill="#ffffff" d="m186.06117 105.226166l-15.937012 42.866135l4.503937 1.6692963l15.937012 -42.866142z" fill-rule="evenodd"/><path fill="#ffffff" d="m174.36348 144.87926l-30.362198 0.09449768l0 4.7873993l30.362198 -0.09448242z" fill-rule="evenodd"/><path fill="#ffffff" d="m201.48665 144.87924l-12.724411 34.173233l4.503937 1.669281l12.724411 -34.173218z" fill-rule="evenodd"/><path fill="#ffffff" d="m232.08264 144.87926l-30.362198 0.09449768l0 4.7873993l30.362198 -0.09448242z" fill-rule="evenodd"/></g></svg>