<svg version="1.1" viewBox="0.0 0.0 288.0 288.0" fill="none" stroke="none" stroke-linecap="square" stroke-miterlimit="10" xmlns:xlink="http://www.w3.org/1999/xlink" xmlns="http://www.w3.org/2000/svg"><clipPath id="p.0"><path d="m0 0l288.0 0l0 288.0l-288.0 0l0 -288.0z" clip-rule="nonzero"/></clipPath><g clip-path="url(#p.0)"><path fill="#000000" fill-opacity="0.0" d="m0 0l288.0 0l0 288.0l-288.0 0z" fill-rule="evenodd"/><path fill="#101417" d="m137.63335 91.42116l0 -48.1776l-23.888802 -22.579298l-37.322334 21.0777l-24.633362 10.534901l-4.4830704 28.609402l-22.391832 18.817398l0 37.6427l-18.669003 24.088806l9.710703 36.133194l14.178097 8.274597l9.710705 30.869705l29.108593 9.784103l23.144234 23.337982l35.833206 -6.780884l10.455261 -23.330109z" fill-rule="evenodd"/><path fill="#101417" d="m153.25354 91.42116l0 -48.1776l23.88881 -22.579298l37.322327 21.0777l24.633362 10.534901l4.483078 28.609402l22.391815 18.817398l0 37.6427l18.669006 24.088806l-9.710693 36.133194l-14.178101 8.274597l-9.710693 30.869705l-29.108597 9.784103l-23.144241 23.337982l-35.833206 -6.780884l-10.455261 -23.330109z" fill-rule="evenodd"/><path fill="#ffffff" d="m73.24672 98.56036l0 0c0 -11.402283 9.222229 -20.645668 20.598427 -20.645668l0 0c5.463043 0 10.702332 2.1751633 14.565285 6.046982c3.8629532 3.871811 6.033142 9.123116 6.033142 14.598686l0 0c0 11.40229 -9.222229 20.645676 -20.598427 20.645676l0 0c-11.376198 0 -20.598427 -9.243385 -20.598427 -20.645676zm10.828178 0c0 5.4220505 4.3742905 9.81749 9.770248 9.81749c5.395958 0 9.770241 -4.395439 9.770241 -9.81749c0 -5.422043 -4.374283 -9.817482 -9.770241 -9.817482l0 0c-5.395958 0 -9.770248 4.395439 -9.770248 9.817482z" fill-rule="evenodd"/><path fill="#ffffff" d="m87.87664 69.01181l11.937012 0l0 19.11811l-11.937012 0z" fill-rule="evenodd"/><path fill="#ffffff" d="m81.92333 99.268456l5.952759 10.330711l-16.629921 9.6063l-5.952759 -10.330711z" fill-rule="evenodd"/><path fill="#ffffff" d="m105.765854 99.268456l-5.952759 10.330711l16.629921 9.6063l5.952759 -10.330711z" fill-rule="evenodd"/><path fill="#ffffff" d="m87.87664 128.84589l11.937012 0l0 -19.11811l-11.937012 0z" fill-rule="evenodd"/><path fill="#ffffff" d="m81.92333 98.58924l5.952759 -10.330711l-16.629921 -9.6063l-5.952759 10.330711z" fill-rule="evenodd"/><path fill="#ffffff" d="m105.765854 98.58924l-5.952759 -10.330711l16.629921 -9.6063l5.952759 10.330711z" fill-rule="evenodd"/><path fill="#ffffff" d="m48.715244 184.28793l0 0c-4.0341263 -14.748871 4.5101624 -29.936646 19.08421 -33.922867l0 0c6.998703 -1.9142456 14.480324 -0.93652344 20.799004 2.7180939c6.31868 3.654602 10.956818 9.686737 12.8940735 16.769394l0 0c4.0341263 14.748856 -4.5101624 29.936646 -19.084206 33.922867l0 0c-14.574043 3.986206 -29.65895 -4.738632 -33.69308 -19.487488zm13.871983 -3.7942047c1.9386063 7.0876007 9.114059 11.300476 16.026817 9.409729c6.9127655 -1.8907471 10.945114 -9.169128 9.006508 -16.256714c-1.9386139 -7.0875854 -9.114059 -11.300461 -16.026825 -9.409714l0 0c-6.912758 1.8907471 -10.9451065 9.169113 -9.0065 16.256699z" fill-rule="evenodd"/><path fill="#ffffff" d="m57.003357 140.94055l15.292503 -4.1827393l6.7639847 24.729279l-15.2925 4.182724z" fill-rule="evenodd"/><path fill="#ffffff" d="m60.08138 182.16356l11.281078 11.276932l-17.90588 18.252869l-11.281078 -11.276932z" fill-rule="evenodd"/><path fill="#ffffff" d="m90.62603 173.80914l-3.9710693 15.448608l24.7033 6.598633l3.9710693 -15.448624z" fill-rule="evenodd"/><path fill="#ffffff" d="m78.17265 218.33592l15.292503 -4.182724l-6.7639847 -24.729279l-15.292503 4.182724z" fill-rule="evenodd"/><path fill="#ffffff" d="m59.841072 181.28499l3.9710732 -15.448624l-24.703304 -6.5986176l-3.9710693 15.448624z" fill-rule="evenodd"/><path fill="#ffffff" d="m90.38573 172.93057l-11.281082 -11.276932l17.905884 -18.252869l11.281082 11.276932z" fill-rule="evenodd"/></g></svg>