<svg version="1.1" viewBox="0.0 0.0 288.0 288.0" fill="none" stroke="none" stroke-linecap="square" stroke-miterlimit="10" xmlns:xlink="http://www.w3.org/1999/xlink" xmlns="http://www.w3.org/2000/svg"><clipPath id="p.0"><path d="m0 0l288.0 0l0 288.0l-288.0 0l0 -288.0z" clip-rule="nonzero"/></clipPath><g clip-path="url(#p.0)"><path fill="#000000" fill-opacity="0.0" d="m0 0l288.0 0l0 288.0l-288.0 0z" fill-rule="evenodd"/><path fill="#cc0000" d="m15.125984 142.09448l0 0c0 -23.326416 18.909801 -42.236214 42.23622 -42.236214l0 0c11.201744 0 21.944687 4.449875 29.865517 12.370705c7.92083 7.920822 12.370705 18.663773 12.370705 29.865509l0 0c0 23.326431 -18.909805 42.23622 -42.23622 42.23622l0 0c-23.32642 0 -42.23622 -18.90979 -42.23622 -42.23622z" fill-rule="evenodd"/><path fill="#16b9c2" d="m78.068245 16.64567l99.11811 0l0 80.44095l-99.11811 0z" fill-rule="evenodd"/><path fill="#ffffff" d="m125.55299 44.117867l0 -12.649601l-6.3432007 -5.928463l-9.91021 5.5342007l-6.540909 2.7660618l-1.1903915 7.511738l-5.945709 4.940731l0 9.883537l-4.957184 6.3248024l2.5784836 9.487202l3.764717 2.1725922l2.5784836 8.105202l7.7292175 2.5689316l6.1454926 6.1276703l9.514801 -1.7804031l2.7761917 -6.125595z" fill-rule="evenodd"/><path fill="#ffffff" d="m129.70062 44.117867l0 -12.649601l6.3432007 -5.928463l9.910217 5.5342007l6.540909 2.7660618l1.1903839 7.511738l5.945709 4.940731l0 9.883537l4.957184 6.3248024l-2.5784912 9.487202l-3.7647095 2.1725922l-2.578476 8.105202l-7.7292175 2.5689316l-6.1454926 6.1276703l-9.514801 -1.7804031l-2.7761993 -6.125595z" fill-rule="evenodd"/><path fill="#16b9c2" d="m160.06824 100.48819l99.1181 0l0 83.2126l-99.1181 0z" fill-rule="evenodd"/><path fill="#16b9c2" d="m200.76115 127.062996l2.0 -10.50132l5.750656 0.5013199l3.0 9.249336l-6.2519684 -2.0z" fill-rule="evenodd"/><path fill="#ffffff" d="m209.62534 133.84464l-7.5013123 -16.999992l-10.0 -2.0l-14.498688 7.5013123l-4.0 15.49868l6.0 12.501312l29.498688 19.0z" fill-rule="evenodd"/><path fill="#ffffff" d="m209.62552 133.84242l7.50206 -17.001701l10.000992 -2.0001984l14.500137 7.50206l4.0003967 15.5002365l-6.000595 12.502563l-29.501633 19.001907z" fill-rule="evenodd"/><path fill="#ffffff" d="m207.42389 168.86745l2.2493439 -35.307083l2.3805695 35.307083z" fill-rule="evenodd"/><path fill="#101417" d="m105.833336 144.0l0 0c0 -1.2959137 1.0505447 -2.3464508 2.3464508 -2.3464508l43.30709 0c0.62231445 0 1.2191467 0.24720764 1.659195 0.68725586c0.44004822 0.44004822 0.68725586 1.0368805 0.68725586 1.659195l0 0l0 0c0 1.2959137 -1.0505371 2.3464508 -2.3464508 2.3464508l-43.30709 0c-1.2959061 0 -2.3464508 -1.0505371 -2.3464508 -2.3464508z" fill-rule="evenodd"/><path fill="#101417" d="m105.83202 129.40945l0 0c0 -1.2959137 1.0505447 -2.3464584 2.3464508 -2.3464584l20.062996 0c0.62231445 0 1.2191467 0.24721527 1.659195 0.68725586c0.44004822 0.4400406 0.68725586 1.0368729 0.68725586 1.6592026l0 0l0 0c0 1.2959137 -1.0505371 2.3464508 -2.3464508 2.3464508l-20.062996 0c-1.2959061 0 -2.3464508 -1.0505371 -2.3464508 -2.3464508z" fill-rule="evenodd"/><path fill="#101417" d="m128.24147 98.5538l0 0c1.2959137 0 2.3464508 1.0505447 2.3464508 2.3464584l0 28.503944c0 0.62231445 -0.24720764 1.2191467 -0.68725586 1.659195c-0.44004822 0.44004822 -1.0368805 0.68725586 -1.659195 0.68725586l0 0l0 0c-1.2959137 0 -2.3464584 -1.0505371 -2.3464584 -2.3464508l0 -28.503944c0 -1.2959137 1.0505447 -2.3464584 2.3464584 -2.3464584z" fill-rule="evenodd"/><path fill="#101417" d="m105.83202 158.59055l0 0c0 1.2959137 1.0505447 2.346466 2.3464508 2.346466l20.062996 0c0.62231445 0 1.2191467 -0.2472229 1.659195 -0.6872711c0.44004822 -0.44003296 0.68725586 -1.0368652 0.68725586 -1.659195l0 0l0 0c0 -1.2959137 -1.0505371 -2.3464508 -2.3464508 -2.3464508l-20.062996 0c-1.2959061 0 -2.3464508 1.0505371 -2.3464508 2.3464508z" fill-rule="evenodd"/><path fill="#101417" d="m128.24147 189.4462l0 0c1.2959137 0 2.3464508 -1.0505524 2.3464508 -2.346466l0 -28.503937c0 -0.62231445 -0.24720764 -1.2191467 -0.68725586 -1.659195c-0.44004822 -0.44004822 -1.0368805 -0.68725586 -1.659195 -0.68725586l0 0l0 0c-1.2959137 0 -2.3464584 1.0505371 -2.3464584 2.3464508l0 28.503937c0 1.2959137 1.0505447 2.346466 2.3464584 2.346466z" fill-rule="evenodd"/><path fill="#16b9c2" d="m78.68241 190.91339l99.11811 0l0 83.212585l-99.11811 0z" fill-rule="evenodd"/><path fill="#ffffff" d="m124.569626 211.32832l-2.5562134 -6.367691l-14.246475 -1.6771698l-9.8652725 10.0546875l-4.746811 49.605362l14.977692 -8.380295l16.071472 -1.6743927z" fill-rule="evenodd"/><path fill="#ffffff" d="m107.14698 203.28346l14.595802 -1.5852966l0.31758118 3.4881897z" fill-rule="evenodd"/><path fill="#ffffff" d="m130.58792 211.5278l2.5562134 -6.367691l14.246475 -1.6771698l9.86528 10.0546875l4.746811 49.605377l-14.977692 -8.38031l-16.071472 -1.6743927z" fill-rule="evenodd"/><path fill="#ffffff" d="m148.01057 203.48294l-14.59581 -1.5852966l-0.31758118 3.4881897z" fill-rule="evenodd"/></g></svg>