<svg version="1.1" viewBox="0.0 0.0 288.0 288.0" fill="none" stroke="none" stroke-linecap="square" stroke-miterlimit="10" xmlns:xlink="http://www.w3.org/1999/xlink" xmlns="http://www.w3.org/2000/svg"><clipPath id="p.0"><path d="m0 0l288.0 0l0 288.0l-288.0 0l0 -288.0z" clip-rule="nonzero"/></clipPath><g clip-path="url(#p.0)"><path fill="#000000" fill-opacity="0.0" d="m0 0l288.0 0l0 288.0l-288.0 0z" fill-rule="evenodd"/><path fill="#101417" d="m170.24446 117.018814c0.12825012 24.260483 -12.758728 46.72876 -33.766754 58.871887c-21.008018 12.143127 -46.914215 12.098221 -67.87999 -0.11769104c-20.96577 -12.215897 -33.77473 -34.728714 -33.56232 -58.9886l25.67802 0.22472382l0 0c-0.1317482 15.043083 7.8119583 29.002846 20.81427 36.57769c13.002319 7.5748596 29.068535 7.602707 42.09706 0.07298279c13.028526 -7.529709 21.020622 -21.461853 20.941078 -36.505302z" fill-rule="evenodd"/><path fill="#101417" d="m66.5809 3.803162l0 0c6.6019363 -1.7919688 13.492035 1.7063398 15.885521 8.065556c2.393486 6.3592167 -0.5002136 13.478846 -6.671608 16.41472c-6.1713943 2.9358768 -13.582016 0.7182598 -17.085625 -5.1128445z" fill-rule="evenodd"/><path fill="#101417" d="m58.993114 23.14476l0 0c-1.1040268 -4.4171333 -0.77718353 -9.470972 0.86611557 -13.392327c1.6432953 -3.9213548 4.374176 -6.164076 7.236641 -5.943057z" fill-rule="evenodd"/><path fill="#000000" fill-opacity="0.0" d="m63.044495 13.477068c-4.7522087 0 -7.835621 11.481735 -9.504421 17.328129c-1.6687965 5.8463917 -1.9229851 6.0574436 -3.01157 17.328127c-1.0885849 11.270687 -3.01157 33.601006 -3.01157 67.20201" fill-rule="evenodd"/><path stroke="#101417" stroke-width="12.0" stroke-linejoin="round" stroke-linecap="butt" d="m63.044495 13.477068c-4.7522087 0 -7.835621 11.481735 -9.504421 17.328129c-1.6687965 5.8463917 -1.9229851 6.0574436 -3.01157 17.328127c-1.0885849 11.270687 -3.01157 33.601006 -3.01157 67.20201" fill-rule="evenodd"/><path fill="#101417" d="m35.95196 121.67333l0 0c-2.3559036 -5.9265823 -0.063129425 -12.685089 5.414528 -15.960609c5.4776573 -3.275528 12.524986 -2.1022186 16.642696 2.7708435c4.1177063 4.873062 4.0915947 12.008949 -0.06166458 16.851814l-9.89109 -8.46212z" fill-rule="evenodd"/><path fill="#101417" d="m227.59422 216.71288c0.12831116 24.273376 -12.772339 46.75157 -33.79802 58.88994c-21.025696 12.138367 -46.947266 12.072662 -67.91112 -0.17214966c-20.963852 -12.2447815 -33.750328 -34.7881 -33.498894 -59.060516l19.731323 0.20429993l0 0c-0.17806244 17.18634 8.876396 33.14836 23.721489 41.818436c14.845093 8.670074 33.200897 8.716583 48.089783 0.12188721c14.8888855 -8.594681 24.0242 -24.51062 23.93332 -41.69763z" fill-rule="evenodd"/><path fill="#101417" d="m92.38256 170.90944l20.125984 0l0 49.417328l-20.125984 0z" fill-rule="evenodd"/><path fill="#101417" d="m207.46536 138.71121l20.125977 0l0 81.6693l-20.125977 0z" fill-rule="evenodd"/><path fill="#101417" d="m138.62404 4.317896l0 0c-6.6019287 -1.7919686 -13.492035 1.7063403 -15.885521 8.065556c-2.393486 6.359215 0.50022125 13.478844 6.671608 16.41472c6.171402 2.9358768 13.582016 0.7182598 17.085632 -5.1128445z" fill-rule="evenodd"/><path fill="#101417" d="m146.21182 23.659492l0 0c1.1040344 -4.4171333 0.77719116 -9.470972 -0.8661041 -13.392327c-1.6432953 -3.9213548 -4.374176 -6.164076 -7.2366486 -5.9430566z" fill-rule="evenodd"/><path fill="#101417" d="m169.25298 122.188065l0 0c2.3559113 -5.9265823 0.06314087 -12.685089 -5.4145203 -15.960609c-5.477661 -3.275528 -12.524994 -2.1022186 -16.6427 2.7708435c-4.1177063 4.873062 -4.0915985 12.008949 0.061660767 16.851822l9.891098 -8.462128z" fill-rule="evenodd"/><path fill="#000000" fill-opacity="0.0" d="m142.50037 16.194319c4.7522125 0 7.835617 11.481735 9.504425 17.328127c1.6687927 5.8463936 1.9229736 6.0574455 3.0115662 17.328129c1.0885773 11.270687 3.0115662 33.60101 3.0115662 67.20201" fill-rule="evenodd"/><path stroke="#101417" stroke-width="12.0" stroke-linejoin="round" stroke-linecap="butt" d="m142.50037 16.194319c4.7522125 0 7.835617 11.481735 9.504425 17.328127c1.6687927 5.8463936 1.9229736 6.0574455 3.0115662 17.328129c1.0885773 11.270687 3.0115662 33.60101 3.0115662 67.20201" fill-rule="evenodd"/><path fill="#101417" d="m182.07027 109.243355l0 0c0 -19.577843 15.870972 -35.448822 35.448822 -35.448822l0 0c9.401611 0 18.418152 3.7347794 25.066101 10.382721c6.647934 6.6479416 10.382721 15.66449 10.382721 25.066101l0 0c0 19.577843 -15.870987 35.448814 -35.448822 35.448814l0 0c-19.57785 0 -35.448822 -15.870972 -35.448822 -35.448814zm11.8867035 0l0 0c0 13.0130005 10.549118 23.562126 23.562119 23.562126c13.0130005 0 23.562119 -10.549126 23.562119 -23.562126c0 -13.0130005 -10.549118 -23.562126 -23.562119 -23.562126l0 0c-13.0130005 0 -23.562119 10.549126 -23.562119 23.562126z" fill-rule="evenodd"/><path fill="#101417" d="m204.50862 109.12761l0 0c0 -7.184044 5.8308716 -13.007874 13.023621 -13.007874l0 0c3.454071 0 6.766693 1.3704681 9.209091 3.8099213c2.442398 2.4394455 3.8145294 5.7480545 3.8145294 9.197952l0 0c0 7.1840515 -5.8308716 13.007874 -13.023621 13.007874l0 0c-7.192749 0 -13.023621 -5.823822 -13.023621 -13.007874z" fill-rule="evenodd"/></g></svg>