<svg version="1.1" viewBox="0.0 0.0 288.0 288.0" fill="none" stroke="none" stroke-linecap="square" stroke-miterlimit="10" xmlns:xlink="http://www.w3.org/1999/xlink" xmlns="http://www.w3.org/2000/svg"><clipPath id="p.0"><path d="m0 0l288.0 0l0 288.0l-288.0 0l0 -288.0z" clip-rule="nonzero"/></clipPath><g clip-path="url(#p.0)"><path fill="#000000" fill-opacity="0.0" d="m0 0l288.0 0l0 288.0l-288.0 0z" fill-rule="evenodd"/><path fill="#16b9c2" d="m118.31759 172.50131l32.62992 0l0 80.97638l-32.62992 0z" fill-rule="evenodd"/><path fill="#16b9c2" d="m75.13123 139.68504l32.62992 0l0 113.79527l-32.62992 0z" fill-rule="evenodd"/><path fill="#16b9c2" d="m31.942257 196.12599l32.629925 0l0 57.38582l-32.629925 0z" fill-rule="evenodd"/><path fill="#000000" fill-opacity="0.0" d="m155.63255 58.052494l0 0c-36.784225 0 -68.8474 25.011768 -77.76584 60.66341c-8.918449 35.651634 7.5970993 72.79177 40.05671 90.07946c32.459618 17.28769 72.53127 10.2854 97.18958 -16.983337l-59.480453 -53.680786z" fill-rule="evenodd"/><path fill="#000000" fill-opacity="0.0" d="m155.63255 58.052494l0 0c-36.784225 0 -68.8474 25.011768 -77.76584 60.66341c-8.918449 35.651634 7.5970993 72.79177 40.05671 90.07946c32.459618 17.28769 72.53127 10.2854 97.18958 -16.983337" fill-rule="evenodd"/><path stroke="#000000" stroke-width="4.0" stroke-linejoin="round" stroke-linecap="butt" d="m155.63255 58.052494l0 0c-36.784225 0 -68.8474 25.011768 -77.76584 60.66341c-8.918449 35.651634 7.5970993 72.79177 40.05671 90.07946c32.459618 17.28769 72.53127 10.2854 97.18958 -16.983337" fill-rule="evenodd"/><path fill="#101417" d="m153.23885 56.157257l0 0c1.3220062 0 2.3937073 1.0716934 2.3937073 2.3936996l0 78.74015c0 0.6348572 -0.25219727 1.2436981 -0.70111084 1.6926117c-0.44889832 0.44889832 -1.0577545 0.7010956 -1.6925964 0.7010956l0 0l0 0c-1.3220062 0 -2.3937073 -1.071701 -2.3937073 -2.3937073l0 -78.74015c0 -1.3220062 1.071701 -2.3936996 2.3937073 -2.3936996z" fill-rule="evenodd"/><path fill="#101417" d="m214.35248 194.39493l0 0c-0.90452576 0.9567108 -2.4268951 1.0135956 -3.400299 0.12705994l-58.23877 -53.041534c-0.46743774 -0.4257202 -0.7431946 -1.0165253 -0.76657104 -1.6424255c-0.023391724 -0.6259155 0.20748901 -1.2356415 0.64186096 -1.6950684l0 0l0 0c0.90452576 -0.9567261 2.4268951 -1.0136108 3.4003143 -0.12705994l58.238754 53.04152c0.97340393 0.88653564 1.0292358 2.380783 0.12471008 3.3375092z" fill-rule="evenodd"/><path fill="#16b9c2" d="m165.15698 32.732323l0 0c23.91896 -0.021816254 46.85742 9.50354 63.725082 26.462273c16.867676 16.958733 26.269379 39.94816 26.118774 63.86664l-89.76199 -0.5651703z" fill-rule="evenodd"/><path fill="#16b9c2" d="m255.00261 131.28716c-0.016342163 22.893051 -8.779007 44.914795 -24.49556 61.560593l-65.2682 -61.62465z" fill-rule="evenodd"/><path fill="#101417" d="m31.944881 253.38058l0 0c0 -1.3220062 1.0716972 -2.3937073 2.3936996 -2.3937073l27.842522 0c0.63484955 0 1.2436943 0.25219727 1.6926003 0.7010956c0.44890594 0.44891357 0.7011032 1.0577545 0.7011032 1.6926117l0 0l0 0c0 1.321991 -1.071701 2.393692 -2.3937035 2.393692l-27.842522 0c-1.3220024 0 -2.3936996 -1.071701 -2.3936996 -2.393692z" fill-rule="evenodd"/><path fill="#101417" d="m118.32021 253.38058l0 0c0 -1.3220062 1.0716934 -2.3937073 2.3936996 -2.3937073l27.842514 0c0.6348572 0 1.2436981 0.25219727 1.6926117 0.7010956c0.44889832 0.44891357 0.7010956 1.0577545 0.7010956 1.6926117l0 0l0 0c0 1.321991 -1.071701 2.393692 -2.3937073 2.393692l-27.842514 0c-1.3220062 0 -2.3936996 -1.071701 -2.3936996 -2.393692z" fill-rule="evenodd"/><path fill="#101417" d="m75.13123 253.38058l0 0c0 -1.3220062 1.0716934 -2.3937073 2.3936996 -2.3937073l27.842522 0c0.63484955 0 1.2436981 0.25219727 1.6926041 0.7010956c0.44890594 0.44891357 0.7010956 1.0577545 0.7010956 1.6926117l0 0l0 0c0 1.321991 -1.0716934 2.393692 -2.3936996 2.393692l-27.842522 0c-1.3220062 0 -2.3936996 -1.071701 -2.3936996 -2.393692z" fill-rule="evenodd"/></g></svg>