<svg version="1.1" viewBox="0.0 0.0 288.0 288.0" fill="none" stroke="none" stroke-linecap="square" stroke-miterlimit="10" xmlns:xlink="http://www.w3.org/1999/xlink" xmlns="http://www.w3.org/2000/svg"><clipPath id="p.0"><path d="m0 0l288.0 0l0 288.0l-288.0 0l0 -288.0z" clip-rule="nonzero"/></clipPath><g clip-path="url(#p.0)"><path fill="#000000" fill-opacity="0.0" d="m0 0l288.0 0l0 288.0l-288.0 0z" fill-rule="evenodd"/><path fill="#16b9c2" d="m30.944881 32.209972l0 0c0 -6.828308E-4 5.569458E-4 -0.0012397766 0.0012435913 -0.0012397766l149.06963 0.0012397766c3.3569336E-4 0 6.4086914E-4 1.335144E-4 8.8500977E-4 3.6621094E-4c2.2888184E-4 2.3269653E-4 3.5095215E-4 5.493164E-4 3.5095215E-4 8.773804E-4l-0.0012359619 39.90427c0 6.866455E-4 -5.493164E-4 0.0012435913 -0.0012359619 0.0012435913l-149.06963 -0.0012435913l0 0c-6.8473816E-4 0 -0.001241684 -5.569458E-4 -0.001241684 -0.0012435913z" fill-rule="evenodd"/><path fill="#ffffff" d="m47.7769 52.16273l0 0c0 -3.713791 3.010624 -6.724411 6.724411 -6.724411l0 0c1.7834244 0 3.493805 0.70846176 4.754875 1.9695358c1.2610703 1.2610703 1.9695358 2.9714508 1.9695358 4.754875l0 0c0 3.713787 -3.010624 6.724407 -6.724411 6.724407l0 0c-3.713787 0 -6.724411 -3.01062 -6.724411 -6.724407z" fill-rule="evenodd"/><path fill="#16b9c2" d="m30.944881 82.20998l0 0c0 -6.866455E-4 5.569458E-4 -0.0012435913 0.0012435913 -0.0012435913l149.06963 0.0012435913c3.3569336E-4 0 6.4086914E-4 1.296997E-4 8.8500977E-4 3.5858154E-4c2.2888184E-4 2.3651123E-4 3.5095215E-4 5.493164E-4 3.5095215E-4 8.8500977E-4l-0.0012359619 39.904266c0 6.866455E-4 -5.493164E-4 0.0012435913 -0.0012359619 0.0012435913l-149.06963 -0.0012435913l0 0c-6.8473816E-4 0 -0.001241684 -5.569458E-4 -0.001241684 -0.0012435913z" fill-rule="evenodd"/><path fill="#16b9c2" d="m30.944881 132.20998l0 0c0 -6.866455E-4 5.569458E-4 -0.0012512207 0.0012435913 -0.0012512207l149.06963 0.0012512207c3.3569336E-4 0 6.4086914E-4 1.2207031E-4 8.8500977E-4 3.6621094E-4c2.2888184E-4 2.2888184E-4 3.5095215E-4 5.493164E-4 3.5095215E-4 8.69751E-4l-0.0012359619 39.904266c0 6.866455E-4 -5.493164E-4 0.0012512207 -0.0012359619 0.0012512207l-149.06963 -0.0012512207l0 0c-6.8473816E-4 0 -0.001241684 -5.493164E-4 -0.001241684 -0.0012359619z" fill-rule="evenodd"/><path fill="#101417" d="m30.944881 184.60367l0 0c0 -1.321991 1.0716972 -2.393692 2.3936996 -2.393692l87.779526 0c0.63484955 0 1.2436981 0.25219727 1.6926041 0.7010956c0.44890594 0.44891357 0.7010956 1.0577545 0.7010956 1.6925964l0 0l0 0c0 1.3220062 -1.0716934 2.3937073 -2.3936996 2.3937073l-87.779526 0c-1.3220024 0 -2.3936996 -1.071701 -2.3936996 -2.3937073z" fill-rule="evenodd"/><path fill="#ffffff" d="m47.7769 102.16273l0 0c0 -3.7137833 3.010624 -6.7244034 6.724411 -6.7244034l0 0c1.7834244 0 3.493805 0.70845795 4.754875 1.9695282c1.2610703 1.2610703 1.9695358 2.9714508 1.9695358 4.754875l0 0c0 3.713791 -3.010624 6.724411 -6.724411 6.724411l0 0c-3.713787 0 -6.724411 -3.01062 -6.724411 -6.724411z" fill-rule="evenodd"/><path fill="#ffffff" d="m47.7769 152.16273l0 0c0 -3.713791 3.010624 -6.724411 6.724411 -6.724411l0 0c1.7834244 0 3.493805 0.7084656 4.754875 1.9695282c1.2610703 1.2610779 1.9695358 2.9714508 1.9695358 4.754883l0 0c0 3.713791 -3.010624 6.724411 -6.724411 6.724411l0 0c-3.713787 0 -6.724411 -3.01062 -6.724411 -6.724411z" fill-rule="evenodd"/><path fill="#ffffff" d="m74.10499 52.16273l0 0c0 -3.713791 3.01062 -6.724411 6.724411 -6.724411l0 0c1.7834244 0 3.493805 0.70846176 4.754875 1.9695358c1.2610703 1.2610703 1.9695282 2.9714508 1.9695282 4.754875l0 0c0 3.713787 -3.01062 6.724407 -6.7244034 6.724407l0 0c-3.713791 0 -6.724411 -3.01062 -6.724411 -6.724407z" fill-rule="evenodd"/><path fill="#ffffff" d="m74.10499 102.16273l0 0c0 -3.7137833 3.01062 -6.7244034 6.724411 -6.7244034l0 0c1.7834244 0 3.493805 0.70845795 4.754875 1.9695282c1.2610703 1.2610703 1.9695282 2.9714508 1.9695282 4.754875l0 0c0 3.713791 -3.01062 6.724411 -6.7244034 6.724411l0 0c-3.713791 0 -6.724411 -3.01062 -6.724411 -6.724411z" fill-rule="evenodd"/><path fill="#ffffff" d="m74.10499 152.16273l0 0c0 -3.713791 3.01062 -6.724411 6.724411 -6.724411l0 0c1.7834244 0 3.493805 0.7084656 4.754875 1.9695282c1.2610703 1.2610779 1.9695282 2.9714508 1.9695282 4.754883l0 0c0 3.713791 -3.01062 6.724411 -6.7244034 6.724411l0 0c-3.713791 0 -6.724411 -3.01062 -6.724411 -6.724411z" fill-rule="evenodd"/><path fill="#ffffff" d="m100.43307 52.16273l0 0c0 -3.713791 3.0106277 -6.724411 6.724411 -6.724411l0 0c1.7834244 0 3.493805 0.70846176 4.754875 1.9695358c1.2610703 1.2610703 1.9695358 2.9714508 1.9695358 4.754875l0 0c0 3.713787 -3.01062 6.724407 -6.724411 6.724407l0 0c-3.7137833 0 -6.724411 -3.01062 -6.724411 -6.724407z" fill-rule="evenodd"/><path fill="#ffffff" d="m100.43307 102.16273l0 0c0 -3.7137833 3.0106277 -6.7244034 6.724411 -6.7244034l0 0c1.7834244 0 3.493805 0.70845795 4.754875 1.9695282c1.2610703 1.2610703 1.9695358 2.9714508 1.9695358 4.754875l0 0c0 3.713791 -3.01062 6.724411 -6.724411 6.724411l0 0c-3.7137833 0 -6.724411 -3.01062 -6.724411 -6.724411z" fill-rule="evenodd"/><path fill="#ffffff" d="m100.43307 152.16273l0 0c0 -3.713791 3.0106277 -6.724411 6.724411 -6.724411l0 0c1.7834244 0 3.493805 0.7084656 4.754875 1.9695282c1.2610703 1.2610779 1.9695358 2.9714508 1.9695358 4.754883l0 0c0 3.713791 -3.01062 6.724411 -6.724411 6.724411l0 0c-3.7137833 0 -6.724411 -3.01062 -6.724411 -6.724411z" fill-rule="evenodd"/><path fill="#101417" d="m129.26247 170.11548l0 0c0 -26.509659 21.490326 -47.999992 48.0 -47.999992l0 0c12.730392 0 24.939377 5.057129 33.94113 14.058876c9.0017395 9.0017395 14.058868 21.21074 14.058868 33.941116l0 0c0 26.509674 -21.490326 48.0 -48.0 48.0l0 0c-26.509674 0 -48.0 -21.490326 -48.0 -48.0zm4.9967957 0l0 0c0 23.750015 19.25319 43.003204 43.003204 43.003204c23.750015 0 43.003204 -19.25319 43.003204 -43.003204l0 0c0 -23.75 -19.25319 -43.003197 -43.003204 -43.003197l0 0c-23.750015 0 -43.003204 19.253197 -43.003204 43.003197z" fill-rule="evenodd"/><path fill="#101417" d="m206.20714 205.31793l0 0c0.9393158 -0.9393158 2.4622498 -0.9393158 3.4015656 0l18.362213 18.362213c0.45108032 0.45106506 0.70448303 1.0628662 0.70448303 1.7007751c0 0.6379242 -0.2534027 1.2497101 -0.70448303 1.7007904l0 0l0 0c-0.9393158 0.9393158 -2.462265 0.9393158 -3.4015808 0l-18.362198 -18.362198c-0.93933105 -0.9393158 -0.93933105 -2.462265 0 -3.4015808z" fill-rule="evenodd"/><path fill="#101417" d="m144.0 184.60367l0 0c0 -1.321991 1.071701 -2.393692 2.3937073 -2.393692l31.212585 0c0.6348572 0 1.2436981 0.25219727 1.6926117 0.7010956c0.44889832 0.44891357 0.7010956 1.0577545 0.7010956 1.6925964l0 0l0 0c0 1.3220062 -1.071701 2.3937073 -2.3937073 2.3937073l-31.212585 0l0 0c-1.3220062 0 -2.3937073 -1.071701 -2.3937073 -2.3937073z" fill-rule="evenodd"/><path fill="#101417" d="m184.4592 137.28786l0 0c10.081024 2.2104034 18.587387 8.930313 23.071228 18.225922c4.483841 9.2956085 4.4478607 20.135986 -0.0975647 29.401642l-4.920944 -2.4140625c3.804062 -7.754425 3.8341675 -16.826736 0.08164978 -24.606232c-3.7525177 -7.7794952 -10.871506 -13.403381 -19.30832 -15.253281z" fill-rule="evenodd"/><path fill="#16b9c2" d="m217.4515 216.55907l0 0c4.9401245 -4.9401245 12.949646 -4.9401245 17.88977 0l19.716537 19.716537l0 0c2.3723297 2.3723297 3.7050934 5.5898895 3.7050934 8.94487c0 3.3549805 -1.3327637 6.5725555 -3.7050934 8.944885l0 0l0 0c-4.9401245 4.94014 -12.949646 4.94014 -17.88977 0l-19.716537 -19.716537c-4.9401245 -4.9401245 -4.9401245 -12.949631 0 -17.889755z" fill-rule="evenodd"/><path stroke="#101417" stroke-width="4.0" stroke-linejoin="round" stroke-linecap="butt" d="m217.4515 216.55907l0 0c4.9401245 -4.9401245 12.949646 -4.9401245 17.88977 0l19.716537 19.716537l0 0c2.3723297 2.3723297 3.7050934 5.5898895 3.7050934 8.94487c0 3.3549805 -1.3327637 6.5725555 -3.7050934 8.944885l0 0l0 0c-4.9401245 4.94014 -12.949646 4.94014 -17.88977 0l-19.716537 -19.716537c-4.9401245 -4.9401245 -4.9401245 -12.949631 0 -17.889755z" fill-rule="evenodd"/></g></svg>