<svg version="1.1" viewBox="0.0 0.0 288.0 288.0" fill="none" stroke="none" stroke-linecap="square" stroke-miterlimit="10" xmlns:xlink="http://www.w3.org/1999/xlink" xmlns="http://www.w3.org/2000/svg"><clipPath id="p.0"><path d="m0 0l288.0 0l0 288.0l-288.0 0l0 -288.0z" clip-rule="nonzero"/></clipPath><g clip-path="url(#p.0)"><path fill="#000000" fill-opacity="0.0" d="m0 0l288.0 0l0 288.0l-288.0 0z" fill-rule="evenodd"/><path fill="#666666" d="m74.0 93.0469l0 0c0 -1.27565 1.034111 -2.309761 2.309761 -2.309761l135.3805 0c0.61257935 0 1.2000732 0.24334717 1.6332397 0.6765137c0.4331665 0.43315887 0.6765137 1.0206604 0.6765137 1.6332474l0 9.238747c0 1.27565 -1.0341187 2.309761 -2.3097534 2.309761l-135.3805 0l0 0c-1.27565 0 -2.309761 -1.034111 -2.309761 -2.309761z" fill-rule="evenodd"/><path fill="#000000" fill-opacity="0.0" d="m92.42324 112.74555l0 0c0 -7.7786865 6.30587 -14.084564 14.084564 -14.084564l73.87812 0c3.7354584 0 7.317917 1.4839096 9.95929 4.1252747c2.6413727 2.6413727 4.1252747 6.223831 4.1252747 9.95929l0 88.27183c0 7.7786865 -6.3058777 14.084564 -14.084564 14.084564l-73.87812 0c-7.778694 0 -14.084564 -6.3058777 -14.084564 -14.084564z" fill-rule="evenodd"/><path stroke="#666666" stroke-width="16.0" stroke-linejoin="round" stroke-linecap="butt" d="m92.42324 112.74555l0 0c0 -7.7786865 6.30587 -14.084564 14.084564 -14.084564l73.87812 0c3.7354584 0 7.317917 1.4839096 9.95929 4.1252747c2.6413727 2.6413727 4.1252747 6.223831 4.1252747 9.95929l0 88.27183c0 7.7786865 -6.3058777 14.084564 -14.084564 14.084564l-73.87812 0c-7.778694 0 -14.084564 -6.3058777 -14.084564 -14.084564z" fill-rule="evenodd"/><path fill="#000000" fill-opacity="0.0" d="m115.24856 95.10507l0 0c0 1.9638824 1.592041 3.5559158 3.5559158 3.5559158l49.26613 0c0.9430847 0 1.8475494 -0.3746338 2.5144043 -1.0415039c0.6668701 -0.6668625 1.0415039 -1.5713196 1.0415039 -2.514412l0 -18.65194c0 -1.9638824 -1.592041 -3.5559235 -3.5559082 -3.5559235l-49.26613 0l0 0c-1.9638748 0 -3.5559158 1.592041 -3.5559158 3.5559235z" fill-rule="evenodd"/><path stroke="#666666" stroke-width="12.0" stroke-linejoin="round" stroke-linecap="butt" d="m115.24856 95.10507l0 0c0 1.9638824 1.592041 3.5559158 3.5559158 3.5559158l49.26613 0c0.9430847 0 1.8475494 -0.3746338 2.5144043 -1.0415039c0.6668701 -0.6668625 1.0415039 -1.5713196 1.0415039 -2.514412l0 -18.65194c0 -1.9638824 -1.592041 -3.5559235 -3.5559082 -3.5559235l-49.26613 0l0 0c-1.9638748 0 -3.5559158 1.592041 -3.5559158 3.5559235z" fill-rule="evenodd"/><path fill="#666666" d="m122.18943 124.40388l0 0c0.97992706 0 1.7743149 0.7943802 1.7743149 1.7743073l0 59.82145c0 0.47058105 -0.18693542 0.92189026 -0.51968384 1.2546387c-0.3327484 0.3327484 -0.78405 0.51968384 -1.254631 0.51968384l-7.0970383 0c-0.97992706 0 -1.7743149 -0.7943878 -1.7743149 -1.7743225l0 -59.82145c0 -0.97992706 0.7943878 -1.7743073 1.7743149 -1.7743073z" fill-rule="evenodd"/><path fill="#666666" d="m147.54497 124.40388l0 0c0.97991943 0 1.7743073 0.7943802 1.7743073 1.7743073l0 59.82145c0 0.47058105 -0.18693542 0.92189026 -0.51968384 1.2546387c-0.3327484 0.3327484 -0.78404236 0.51968384 -1.2546234 0.51968384l-7.097046 0c-0.97991943 0 -1.7743073 -0.7943878 -1.7743073 -1.7743225l0 -59.82145c0 -0.97992706 0.7943878 -1.7743073 1.7743073 -1.7743073z" fill-rule="evenodd"/><path fill="#666666" d="m172.9005 124.40388l0 0c0.9799347 0 1.7743225 0.7943802 1.7743225 1.7743073l0 59.82145c0 0.47058105 -0.18693542 0.92189026 -0.51968384 1.2546387c-0.3327484 0.3327484 -0.7840576 0.51968384 -1.2546387 0.51968384l-7.097046 0c-0.97991943 0 -1.7743073 -0.7943878 -1.7743073 -1.7743225l0 -59.82145c0 -0.97992706 0.7943878 -1.7743073 1.7743073 -1.7743073z" fill-rule="evenodd"/></g></svg>