<svg version="1.1" viewBox="0.0 0.0 960.0 960.0" fill="none" stroke="none" stroke-linecap="square" stroke-miterlimit="10" xmlns:xlink="http://www.w3.org/1999/xlink" xmlns="http://www.w3.org/2000/svg"><clipPath id="p.0"><path d="m0 0l960.0 0l0 960.0l-960.0 0l0 -960.0z" clip-rule="nonzero"/></clipPath><g clip-path="url(#p.0)"><path fill="#000000" fill-opacity="0.0" d="m0 0l960.0 0l0 960.0l-960.0 0z" fill-rule="evenodd"/><path fill="#ffe599" d="m410.75723 808.1011l-70.02365 -656.20215l-280.09448 0l70.02363 656.20215z" fill-rule="evenodd"/><path stroke="#ff9900" stroke-width="24.0" stroke-linejoin="round" stroke-linecap="butt" d="m410.75723 808.1011l-70.02365 -656.20215l-280.09448 0l70.02363 656.20215z" fill-rule="evenodd"/><path fill="#000000" fill-opacity="0.0" d="m347.56824 212.65749l233.32281 2.4251862" fill-rule="evenodd"/><path stroke="#ff9900" stroke-width="24.0" stroke-linejoin="round" stroke-linecap="butt" d="m347.56824 212.65749l233.32281 2.4251862" fill-rule="evenodd"/><path fill="#000000" fill-opacity="0.0" d="m570.5445 212.65776l38.11023 230.23622" fill-rule="evenodd"/><path stroke="#ff9900" stroke-width="24.0" stroke-linejoin="round" stroke-linecap="butt" d="m570.5445 212.65776l38.11023 230.23622" fill-rule="evenodd"/><path fill="#ffe599" d="m257.64172 227.24016l298.92914 0l0 121.511826l-298.92914 0z" fill-rule="evenodd"/><path fill="#ffe599" d="m143.51312 808.1011l151.16956 -539.54596l604.6782 0l-151.16956 539.54596z" fill-rule="evenodd"/><path stroke="#ff9900" stroke-width="24.0" stroke-linejoin="round" stroke-linecap="butt" d="m143.51312 808.1011l151.16956 -539.54596l604.6782 0l-151.16956 539.54596z" fill-rule="evenodd"/></g></svg>