<svg version="1.1" viewBox="0.0 0.0 288.0 288.0" fill="none" stroke="none" stroke-linecap="square" stroke-miterlimit="10" xmlns:xlink="http://www.w3.org/1999/xlink" xmlns="http://www.w3.org/2000/svg"><clipPath id="p.0"><path d="m0 0l288.0 0l0 288.0l-288.0 0l0 -288.0z" clip-rule="nonzero"/></clipPath><g clip-path="url(#p.0)"><path fill="#000000" fill-opacity="0.0" d="m0 0l288.0 0l0 288.0l-288.0 0z" fill-rule="evenodd"/><path fill="#16b9c2" d="m63.089237 60.21391l104.50394 0l0 188.0l-104.50394 0z" fill-rule="evenodd"/><path fill="#16b9c2" d="m208.08923 97.7126l0 150.48819l-144.97638 0l0 -150.48819z" fill-rule="evenodd"/><path fill="#ffffff" d="m90.95538 104.20604l89.291336 0l0 9.606293l-89.291336 0z" fill-rule="evenodd"/><path fill="#16b9c2" d="m167.59317 97.72572l0 -37.511814l40.503937 37.511814z" fill-rule="evenodd"/><path fill="#101417" d="m76.31233 42.65223l0 0c0 -1.4263725 1.156311 -2.582676 2.5826797 -2.582676l96.59843 0c0.68496704 0 1.3418884 0.27210236 1.8262329 0.75645065c0.48434448 0.48434448 0.7564392 1.1412582 0.7564392 1.8262253l0 0l0 0c0 1.4263763 -1.1562958 2.5826797 -2.582672 2.5826797l-96.59843 0c-1.4263687 0 -2.5826797 -1.1563034 -2.5826797 -2.5826797z" fill-rule="evenodd"/><path fill="#101417" d="m78.70604 40.06956l0 0c1.3219986 0 2.3936996 1.0716934 2.3936996 2.3936996l0 190.86615c0 0.6348419 -0.25219727 1.2436981 -0.7011032 1.6925964c-0.44890594 0.44891357 -1.0577469 0.7010956 -1.6925964 0.7010956l0 0l0 0c-1.3220062 0 -2.3937073 -1.0716858 -2.3937073 -2.393692l0 -190.86615c0 -1.3220062 1.071701 -2.3936996 2.3937073 -2.3936996z" fill-rule="evenodd"/><path fill="#101417" d="m76.31228 233.14043l0 0c0 -1.4263763 1.1563034 -2.5826874 2.5826797 -2.5826874l142.61417 0c0.68496704 0 1.3418884 0.27211 1.8262329 0.75645447c0.48434448 0.48434448 0.75645447 1.1412506 0.75645447 1.8262329l0 0l0 0c0 1.4263611 -1.156311 2.582672 -2.5826874 2.582672l-142.61417 0c-1.4263763 0 -2.5826797 -1.156311 -2.5826797 -2.582672z" fill-rule="evenodd"/><path fill="#101417" d="m221.69817 85.961945l0 0c1.3220062 0 2.393692 1.0716934 2.393692 2.3936996l0 144.97638c0 0.6348572 -0.252182 1.2436981 -0.7010956 1.6926117c-0.44889832 0.44889832 -1.0577545 0.7010956 -1.6925964 0.7010956l0 0l0 0c-1.3220062 0 -2.3937073 -1.071701 -2.3937073 -2.3937073l0 -144.97638l0 0c0 -1.3220062 1.071701 -2.3936996 2.3937073 -2.3936996z" fill-rule="evenodd"/><path fill="#101417" d="m175.43037 41.62861l0 0c1.0088959 -1.0175934 2.6487122 -1.021656 3.6626434 -0.009067535l43.981796 43.92365c0.48690796 0.4862671 0.7613983 1.1467285 0.7631073 1.8361053c0.0017089844 0.68938446 -0.269516 1.3511963 -0.75401306 1.8398666l0 0l0 0c-1.0088959 1.0175934 -2.6487122 1.0216599 -3.6626434 0.00907135l-43.98178 -43.923656c-1.0139313 -1.0125847 -1.0180054 -2.658371 -0.009109497 -3.6759682z" fill-rule="evenodd"/><path fill="#101417" d="m174.83989 88.555115l0 0c0 -1.4350662 1.1633453 -2.593956 2.598404 -2.5884476l44.03154 0.16902924c0.6891327 0.0026397705 1.3500519 0.2789383 1.8373413 0.7681122c0.4873047 0.48916626 0.7610626 1.1511383 0.7610626 1.8402863l0 0l0 0c0 1.4350662 -1.1633453 2.593956 -2.598404 2.5884476l-44.03154 -0.1690216c-1.4350586 -0.0055160522 -2.598404 -1.1733322 -2.598404 -2.608406z" fill-rule="evenodd"/><path fill="#101417" d="m177.62729 42.114174l0 0c1.4350739 0 2.5939636 1.1633453 2.5884552 2.598404l-0.16903687 44.031532c-0.0026397705 0.6891403 -0.27894592 1.3500595 -0.7681122 1.8373566c-0.48916626 0.48728943 -1.1511383 0.761055 -1.8402863 0.761055l0 0l0 0c-1.4350739 0 -2.5939484 -1.1633453 -2.58844 -2.5984116l0.1690216 -44.031532c0.005508423 -1.4350586 1.1733246 -2.598404 2.6083984 -2.598404z" fill-rule="evenodd"/><path fill="#ffffff" d="m95.08924 120.16404l34.01574 0l0 22.58268l-34.01574 0z" fill-rule="evenodd"/><path fill="#ffffff" d="m90.95538 153.91602l89.291336 0l0 9.606293l-89.291336 0z" fill-rule="evenodd"/><path fill="#ffffff" d="m90.95538 176.27559l89.291336 0l0 9.606308l-89.291336 0z" fill-rule="evenodd"/><path fill="#ffffff" d="m90.95538 198.63518l89.291336 0l0 9.606293l-89.291336 0z" fill-rule="evenodd"/></g></svg>