<svg version="1.1" viewBox="0.0 0.0 480.0 480.0" fill="none" stroke="none" stroke-linecap="square" stroke-miterlimit="10" xmlns:xlink="http://www.w3.org/1999/xlink" xmlns="http://www.w3.org/2000/svg"><clipPath id="p.0"><path d="m0 0l480.0 0l0 480.0l-480.0 0l0 -480.0z" clip-rule="nonzero"/></clipPath><g clip-path="url(#p.0)"><path fill="#000000" fill-opacity="0.0" d="m0 0l480.0 0l0 480.0l-480.0 0z" fill-rule="evenodd"/><path fill="#202020" d="m40.998688 205.64961l0 0c0 -90.131134 73.06572 -163.19685 163.19685 -163.19685l0 0c43.282486 0 84.79225 17.193905 115.3976 47.79925c30.605347 30.605347 47.799255 72.115105 47.799255 115.397606l0 0c0 90.13112 -73.065735 163.19685 -163.19685 163.19685l0 0c-90.131134 0 -163.19685 -73.065735 -163.19685 -163.19685zm31.144485 0l0 0c0 72.9305 59.121857 132.05235 132.05237 132.05235c72.9305 0 132.05235 -59.121857 132.05235 -132.05235l0 0c0 -72.93051 -59.121857 -132.05237 -132.05235 -132.05237l0 0c-72.93051 0 -132.05237 59.121857 -132.05237 132.05237z" fill-rule="evenodd"/><path fill="#202020" d="m315.252 287.68896l123.74805 123.74802l-26.11023 26.11026l-123.74805 -123.74805z" fill-rule="evenodd"/></g></svg>