<svg version="1.1" viewBox="0.0 0.0 288.0 288.0" fill="none" stroke="none" stroke-linecap="square" stroke-miterlimit="10" xmlns:xlink="http://www.w3.org/1999/xlink" xmlns="http://www.w3.org/2000/svg"><clipPath id="p.0"><path d="m0 0l288.0 0l0 288.0l-288.0 0l0 -288.0z" clip-rule="nonzero"/></clipPath><g clip-path="url(#p.0)"><path fill="#000000" fill-opacity="0.0" d="m0 0l288.0 0l0 288.0l-288.0 0z" fill-rule="evenodd"/><path fill="#101417" d="m-1.6929134 18.818897l289.70078 0l0 269.19684l-289.70078 0zm25.665228 25.66523l0 217.8664l238.37033 0l0 -217.8664z" fill-rule="evenodd"/><path fill="#101417" d="m135.80878 3.6745407E-6l14.696152 0l0 0c1.9252319 0 3.4859314 17.48966 3.4859314 39.06425c0 21.574593 -1.5606995 39.064255 -3.4859314 39.064255l-14.696152 0l0 0c-1.9252319 0 -3.4859467 -17.489662 -3.4859467 -39.064255c0 -21.57459 1.5607147 -39.06425 3.4859467 -39.06425z" fill-rule="evenodd"/><path fill="#101417" d="m73.107994 3.6745407E-6l14.696136 0l0 0c1.9252396 0 3.4859467 17.48966 3.4859467 39.06425c0 21.574593 -1.5607071 39.064255 -3.4859467 39.064255l-14.696136 0l0 0c-1.9252396 0 -3.4859467 -17.489662 -3.4859467 -39.064255c0 -21.57459 1.5607071 -39.06425 3.4859467 -39.06425z" fill-rule="evenodd"/><path fill="#101417" d="m198.50957 3.6745407E-6l14.696136 0l0 0c1.9252319 0 3.4859467 17.48966 3.4859467 39.06425c0 21.574593 -1.5607147 39.064255 -3.4859467 39.064255l-14.696136 0l0 0c-1.9252319 0 -3.4859467 -17.489662 -3.4859467 -39.064255c0 -21.57459 1.5607147 -39.06425 3.4859467 -39.06425z" fill-rule="evenodd"/><path fill="#101417" d="m-1.6929134 106.64567l289.70078 0l0 164.25198l-289.70078 0z" fill-rule="evenodd"/><path fill="#ffffff" d="m78.23622 199.77953l0 0c0 -36.320328 29.443443 -65.76378 65.76378 -65.76378l0 0c17.441635 0 34.168915 6.928665 46.502014 19.261765c12.333099 12.333099 19.261765 29.060379 19.261765 46.502014l0 0c0 36.320328 -29.44345 65.76378 -65.76378 65.76378l0 0c-36.320335 0 -65.76378 -29.44345 -65.76378 -65.76378z" fill-rule="evenodd"/><path fill="#101417" d="m140.72441 144.0l9.291336 0l0 61.88977l-9.291336 0z" fill-rule="evenodd"/><path fill="#101417" d="m197.8687 218.16203l-3.6220398 8.535431l-56.944885 -24.220474l3.622055 -8.535431z" fill-rule="evenodd"/></g></svg>