<svg version="1.1" viewBox="0.0 0.0 288.0 288.0" fill="none" stroke="none" stroke-linecap="square" stroke-miterlimit="10" xmlns:xlink="http://www.w3.org/1999/xlink" xmlns="http://www.w3.org/2000/svg"><clipPath id="p.0"><path d="m0 0l288.0 0l0 288.0l-288.0 0l0 -288.0z" clip-rule="nonzero"/></clipPath><g clip-path="url(#p.0)"><path fill="#000000" fill-opacity="0.0" d="m0 0l288.0 0l0 288.0l-288.0 0z" fill-rule="evenodd"/><path fill="#101417" d="m28.947506 9.643044l12.850395 0l0 272.56693l-12.850395 0z" fill-rule="evenodd"/><path fill="#101417" d="m282.53543 247.11023l0 12.850403l-277.07086 0l0 -12.850403z" fill-rule="evenodd"/><path fill="#101417" d="m97.73753 109.22835l0 0c0 -9.010506 7.3044586 -16.314964 16.314957 -16.314964l0 0c4.3270035 0 8.476776 1.718895 11.536423 4.7785416c3.0596466 3.0596542 4.778534 7.209427 4.778534 11.536423l0 0c0 9.010506 -7.304451 16.314957 -16.314957 16.314957l0 0c-9.010498 0 -16.314957 -7.304451 -16.314957 -16.314957z" fill-rule="evenodd"/><path fill="#101417" d="m148.44882 141.85826l0 0c0 -9.010498 7.3044586 -16.314957 16.314957 -16.314957l0 0c4.326996 0 8.476776 1.718895 11.536423 4.778549c3.0596466 3.0596466 4.778534 7.2094116 4.778534 11.536407l0 0c0 9.010513 -7.3044586 16.314972 -16.314957 16.314972l0 0c-9.010498 0 -16.314957 -7.3044586 -16.314957 -16.314972z" fill-rule="evenodd"/><path fill="#101417" d="m109.5827 102.14438l10.929131 6.740158l-55.937004 90.67717l-10.929134 -6.740158z" fill-rule="evenodd"/><path fill="#101417" d="m106.992134 109.8789l7.559059 -10.3937l53.38582 38.771652l-7.5590515 10.393707z" fill-rule="evenodd"/><path fill="#101417" d="m224.69283 57.194504l10.078735 8.0l-66.01575 83.2126l-10.078735 -8.0z" fill-rule="evenodd"/><path fill="#101417" d="m217.16273 56.28609l0 0c0 -9.010506 7.3044586 -16.31496 16.314957 -16.31496l0 0c4.326996 0 8.476776 1.7188911 11.536423 4.7785378c3.0596466 3.0596504 4.778534 7.209423 4.778534 11.536423l0 0c0 9.010502 -7.3044586 16.31496 -16.314957 16.31496l0 0c-9.010498 0 -16.314957 -7.3044586 -16.314957 -16.31496z" fill-rule="evenodd"/><path fill="#101417" d="m228.00233 56.309242l9.417328 -8.724411l30.362198 32.72441l-9.417328 8.724411z" fill-rule="evenodd"/></g></svg>